<mxfile host="app.diagrams.net" modified="2024-02-18T11:12:47.507Z" agent="Mozilla/5.0 (X11; Ubuntu; Linux x86_64; rv:122.0) Gecko/20100101 Firefox/122.0" etag="xWFsCy2QRaiAHdFr9m8h" version="23.1.5" type="device">
  <diagram id="C5RBs43oDa-KdzZeNtuy" name="Page-1">
    <mxGraphModel dx="1050" dy="579" grid="1" gridSize="10" guides="1" tooltips="1" connect="1" arrows="1" fold="1" page="1" pageScale="1" pageWidth="827" pageHeight="1169" math="0" shadow="0">
      <root>
        <mxCell id="WIyWlLk6GJQsqaUBKTNV-0" />
        <mxCell id="WIyWlLk6GJQsqaUBKTNV-1" parent="WIyWlLk6GJQsqaUBKTNV-0" />
        <mxCell id="zvIiMwaHz-_lSTHS9i9g-1" style="edgeStyle=orthogonalEdgeStyle;rounded=0;orthogonalLoop=1;jettySize=auto;html=1;exitX=0.5;exitY=1;exitDx=0;exitDy=0;" edge="1" parent="WIyWlLk6GJQsqaUBKTNV-1" source="WIyWlLk6GJQsqaUBKTNV-3" target="zvIiMwaHz-_lSTHS9i9g-0">
          <mxGeometry relative="1" as="geometry" />
        </mxCell>
        <mxCell id="WIyWlLk6GJQsqaUBKTNV-3" value="Landing on ice cream order form" style="rounded=1;whiteSpace=wrap;html=1;fontSize=12;glass=0;strokeWidth=1;shadow=0;" parent="WIyWlLk6GJQsqaUBKTNV-1" vertex="1">
          <mxGeometry x="160" y="80" width="120" height="40" as="geometry" />
        </mxCell>
        <mxCell id="zvIiMwaHz-_lSTHS9i9g-3" style="edgeStyle=orthogonalEdgeStyle;rounded=0;orthogonalLoop=1;jettySize=auto;html=1;exitX=1;exitY=0.5;exitDx=0;exitDy=0;entryX=0;entryY=0.5;entryDx=0;entryDy=0;" edge="1" parent="WIyWlLk6GJQsqaUBKTNV-1" source="zvIiMwaHz-_lSTHS9i9g-0" target="zvIiMwaHz-_lSTHS9i9g-2">
          <mxGeometry relative="1" as="geometry" />
        </mxCell>
        <mxCell id="zvIiMwaHz-_lSTHS9i9g-0" value="Selecting an ice cream flavor from dropdown" style="rounded=1;whiteSpace=wrap;html=1;fontSize=12;glass=0;strokeWidth=1;shadow=0;" vertex="1" parent="WIyWlLk6GJQsqaUBKTNV-1">
          <mxGeometry x="160" y="160" width="120" height="50" as="geometry" />
        </mxCell>
        <mxCell id="zvIiMwaHz-_lSTHS9i9g-5" style="edgeStyle=orthogonalEdgeStyle;rounded=0;orthogonalLoop=1;jettySize=auto;html=1;exitX=1;exitY=0.5;exitDx=0;exitDy=0;entryX=0;entryY=0.5;entryDx=0;entryDy=0;" edge="1" parent="WIyWlLk6GJQsqaUBKTNV-1" source="zvIiMwaHz-_lSTHS9i9g-2" target="zvIiMwaHz-_lSTHS9i9g-4">
          <mxGeometry relative="1" as="geometry" />
        </mxCell>
        <mxCell id="zvIiMwaHz-_lSTHS9i9g-2" value="ordering an ice cream" style="rounded=1;whiteSpace=wrap;html=1;fontSize=12;glass=0;strokeWidth=1;shadow=0;" vertex="1" parent="WIyWlLk6GJQsqaUBKTNV-1">
          <mxGeometry x="320" y="160" width="120" height="50" as="geometry" />
        </mxCell>
        <mxCell id="zvIiMwaHz-_lSTHS9i9g-7" style="edgeStyle=orthogonalEdgeStyle;rounded=0;orthogonalLoop=1;jettySize=auto;html=1;exitX=1;exitY=0.5;exitDx=0;exitDy=0;entryX=0;entryY=0.5;entryDx=0;entryDy=0;" edge="1" parent="WIyWlLk6GJQsqaUBKTNV-1" source="zvIiMwaHz-_lSTHS9i9g-4" target="zvIiMwaHz-_lSTHS9i9g-6">
          <mxGeometry relative="1" as="geometry" />
        </mxCell>
        <mxCell id="zvIiMwaHz-_lSTHS9i9g-4" value="OrderPlacedEvent get published" style="rounded=1;whiteSpace=wrap;html=1;fontSize=12;glass=0;strokeWidth=1;shadow=0;" vertex="1" parent="WIyWlLk6GJQsqaUBKTNV-1">
          <mxGeometry x="480" y="160" width="120" height="50" as="geometry" />
        </mxCell>
        <mxCell id="zvIiMwaHz-_lSTHS9i9g-11" style="edgeStyle=orthogonalEdgeStyle;rounded=0;orthogonalLoop=1;jettySize=auto;html=1;exitX=1;exitY=0.5;exitDx=0;exitDy=0;entryX=0;entryY=0.5;entryDx=0;entryDy=0;" edge="1" parent="WIyWlLk6GJQsqaUBKTNV-1" source="zvIiMwaHz-_lSTHS9i9g-6" target="zvIiMwaHz-_lSTHS9i9g-10">
          <mxGeometry relative="1" as="geometry" />
        </mxCell>
        <mxCell id="zvIiMwaHz-_lSTHS9i9g-6" value="OrderPlacedEventListener catches the event and sends ice cream flavor to email service" style="rounded=1;whiteSpace=wrap;html=1;fontSize=12;glass=0;strokeWidth=1;shadow=0;" vertex="1" parent="WIyWlLk6GJQsqaUBKTNV-1">
          <mxGeometry x="640" y="150" width="160" height="70" as="geometry" />
        </mxCell>
        <mxCell id="zvIiMwaHz-_lSTHS9i9g-13" style="edgeStyle=orthogonalEdgeStyle;rounded=0;orthogonalLoop=1;jettySize=auto;html=1;exitX=0.5;exitY=1;exitDx=0;exitDy=0;" edge="1" parent="WIyWlLk6GJQsqaUBKTNV-1" source="zvIiMwaHz-_lSTHS9i9g-10" target="zvIiMwaHz-_lSTHS9i9g-12">
          <mxGeometry relative="1" as="geometry" />
        </mxCell>
        <mxCell id="zvIiMwaHz-_lSTHS9i9g-10" value="email service sends the email to the recipient (synchronously or asyncronously)" style="rounded=1;whiteSpace=wrap;html=1;fontSize=12;glass=0;strokeWidth=1;shadow=0;" vertex="1" parent="WIyWlLk6GJQsqaUBKTNV-1">
          <mxGeometry x="840" y="150" width="180" height="70" as="geometry" />
        </mxCell>
        <mxCell id="zvIiMwaHz-_lSTHS9i9g-12" value="back to ice cream order form" style="rounded=1;whiteSpace=wrap;html=1;fontSize=12;glass=0;strokeWidth=1;shadow=0;" vertex="1" parent="WIyWlLk6GJQsqaUBKTNV-1">
          <mxGeometry x="870" y="267" width="120" height="40" as="geometry" />
        </mxCell>
      </root>
    </mxGraphModel>
  </diagram>
</mxfile>
